<mxfile host="app.diagrams.net" modified="2024-02-29T19:41:49.833Z" agent="Mozilla/5.0 (X11; Linux x86_64) AppleWebKit/537.36 (KHTML, like Gecko) Chrome/120.0.0.0 Safari/537.36" etag="9plssTClPKbKWKmfWJwX" version="24.0.0" type="github">
  <diagram name="Page-1" id="5f0bae14-7c28-e335-631c-24af17079c00">
    <mxGraphModel dx="2074" dy="1152" grid="1" gridSize="10" guides="1" tooltips="1" connect="1" arrows="1" fold="1" page="1" pageScale="1" pageWidth="1100" pageHeight="850" background="none" math="0" shadow="0">
      <root>
        <mxCell id="0" />
        <mxCell id="1" parent="0" />
        <mxCell id="u1jq9422aXijwaZWtlBG-39" value="" style="rounded=0;whiteSpace=wrap;html=1;" vertex="1" parent="1">
          <mxGeometry x="40" y="770" width="1030" height="90" as="geometry" />
        </mxCell>
        <mxCell id="u1jq9422aXijwaZWtlBG-10" value="" style="group" vertex="1" connectable="0" parent="1">
          <mxGeometry x="40" y="60" width="220" height="630" as="geometry" />
        </mxCell>
        <mxCell id="u1jq9422aXijwaZWtlBG-3" value="" style="rounded=0;whiteSpace=wrap;html=1;" vertex="1" parent="u1jq9422aXijwaZWtlBG-10">
          <mxGeometry y="60" width="220" height="570" as="geometry" />
        </mxCell>
        <mxCell id="u1jq9422aXijwaZWtlBG-1" value="&lt;font style=&quot;font-size: 19px;&quot;&gt;Domain&lt;/font&gt;&lt;div&gt;&lt;br&gt;&lt;/div&gt;&lt;div&gt;(Models/Entities, Interfaces und ggf. spezielle Domain-Logic)&lt;/div&gt;" style="rounded=1;whiteSpace=wrap;html=1;fillColor=#dae8fc;strokeColor=#6c8ebf;verticalAlign=top;labelPosition=center;verticalLabelPosition=middle;align=center;" vertex="1" parent="u1jq9422aXijwaZWtlBG-10">
          <mxGeometry x="20" y="80" width="180" height="90" as="geometry" />
        </mxCell>
        <mxCell id="u1jq9422aXijwaZWtlBG-2" value="Module 1" style="text;html=1;align=center;verticalAlign=middle;whiteSpace=wrap;rounded=0;fontSize=24;" vertex="1" parent="u1jq9422aXijwaZWtlBG-10">
          <mxGeometry x="52.5" width="115" height="30" as="geometry" />
        </mxCell>
        <mxCell id="u1jq9422aXijwaZWtlBG-5" value="&lt;span style=&quot;font-size: 19px;&quot;&gt;API&lt;/span&gt;&lt;div&gt;&lt;span style=&quot;font-size: 19px;&quot;&gt;&lt;br&gt;&lt;/span&gt;&lt;/div&gt;&lt;div&gt;&lt;font style=&quot;font-size: 13px;&quot;&gt;(Controllers, DTOs, Mapper)&lt;/font&gt;&lt;/div&gt;" style="rounded=1;whiteSpace=wrap;html=1;fillColor=#dae8fc;strokeColor=#6c8ebf;verticalAlign=top;labelPosition=center;verticalLabelPosition=middle;align=center;" vertex="1" parent="u1jq9422aXijwaZWtlBG-10">
          <mxGeometry x="20" y="210" width="180" height="90" as="geometry" />
        </mxCell>
        <mxCell id="u1jq9422aXijwaZWtlBG-7" value="" style="endArrow=none;dashed=1;html=1;rounded=0;" edge="1" parent="u1jq9422aXijwaZWtlBG-10">
          <mxGeometry width="50" height="50" relative="1" as="geometry">
            <mxPoint x="8" y="190" as="sourcePoint" />
            <mxPoint x="213" y="190" as="targetPoint" />
          </mxGeometry>
        </mxCell>
        <mxCell id="u1jq9422aXijwaZWtlBG-50" style="edgeStyle=orthogonalEdgeStyle;rounded=0;orthogonalLoop=1;jettySize=auto;html=1;exitX=0.5;exitY=1;exitDx=0;exitDy=0;entryX=0.5;entryY=0;entryDx=0;entryDy=0;" edge="1" parent="u1jq9422aXijwaZWtlBG-10" source="u1jq9422aXijwaZWtlBG-8" target="u1jq9422aXijwaZWtlBG-9">
          <mxGeometry relative="1" as="geometry" />
        </mxCell>
        <mxCell id="u1jq9422aXijwaZWtlBG-8" value="&lt;span style=&quot;font-size: 19px;&quot;&gt;Application&lt;/span&gt;&lt;br&gt;&lt;div&gt;&lt;br&gt;&lt;/div&gt;&lt;div&gt;&lt;font style=&quot;font-size: 13px;&quot;&gt;(Services orchestrieren die Interaktion zwischen Anwendungslogic und der Außenwelt (z.B. API, externen Systemen, etc.)&lt;/font&gt;&lt;/div&gt;" style="rounded=1;whiteSpace=wrap;html=1;fillColor=#dae8fc;strokeColor=#6c8ebf;verticalAlign=top;labelPosition=center;verticalLabelPosition=middle;align=center;" vertex="1" parent="u1jq9422aXijwaZWtlBG-10">
          <mxGeometry x="20" y="320" width="180" height="130" as="geometry" />
        </mxCell>
        <mxCell id="u1jq9422aXijwaZWtlBG-9" value="&lt;span style=&quot;font-size: 19px;&quot;&gt;Infrastructure&lt;/span&gt;&lt;br&gt;&lt;div&gt;&lt;br&gt;&lt;/div&gt;&lt;div&gt;&lt;font style=&quot;font-size: 13px;&quot;&gt;(Implementiert die Repository Interfaces und kapselt die technischen Deails der Datenpersistenz)&lt;/font&gt;&lt;/div&gt;" style="rounded=1;whiteSpace=wrap;html=1;fillColor=#dae8fc;strokeColor=#6c8ebf;verticalAlign=top;labelPosition=center;verticalLabelPosition=middle;align=center;" vertex="1" parent="u1jq9422aXijwaZWtlBG-10">
          <mxGeometry x="20" y="470" width="180" height="130" as="geometry" />
        </mxCell>
        <mxCell id="u1jq9422aXijwaZWtlBG-54" value="" style="endArrow=classic;html=1;rounded=0;exitX=0.5;exitY=0;exitDx=0;exitDy=0;" edge="1" parent="u1jq9422aXijwaZWtlBG-10" source="u1jq9422aXijwaZWtlBG-5">
          <mxGeometry width="50" height="50" relative="1" as="geometry">
            <mxPoint x="430" y="490" as="sourcePoint" />
            <mxPoint x="110" y="170" as="targetPoint" />
          </mxGeometry>
        </mxCell>
        <mxCell id="u1jq9422aXijwaZWtlBG-55" value="" style="endArrow=classic;html=1;rounded=0;exitX=0.5;exitY=1;exitDx=0;exitDy=0;entryX=0.5;entryY=0;entryDx=0;entryDy=0;" edge="1" parent="u1jq9422aXijwaZWtlBG-10" source="u1jq9422aXijwaZWtlBG-5" target="u1jq9422aXijwaZWtlBG-8">
          <mxGeometry width="50" height="50" relative="1" as="geometry">
            <mxPoint x="430" y="490" as="sourcePoint" />
            <mxPoint x="480" y="440" as="targetPoint" />
          </mxGeometry>
        </mxCell>
        <mxCell id="u1jq9422aXijwaZWtlBG-11" value="" style="group" vertex="1" connectable="0" parent="1">
          <mxGeometry x="310" y="60" width="220" height="630" as="geometry" />
        </mxCell>
        <mxCell id="u1jq9422aXijwaZWtlBG-12" value="" style="rounded=0;whiteSpace=wrap;html=1;" vertex="1" parent="u1jq9422aXijwaZWtlBG-11">
          <mxGeometry y="60" width="220" height="570" as="geometry" />
        </mxCell>
        <mxCell id="u1jq9422aXijwaZWtlBG-13" value="&lt;font style=&quot;font-size: 19px;&quot;&gt;Domain&lt;/font&gt;&lt;div&gt;&lt;br&gt;&lt;/div&gt;&lt;div&gt;(Models/Entities, Interfaces und ggf. spezielle Domain-Logic)&lt;/div&gt;" style="rounded=1;whiteSpace=wrap;html=1;fillColor=#dae8fc;strokeColor=#6c8ebf;verticalAlign=top;labelPosition=center;verticalLabelPosition=middle;align=center;" vertex="1" parent="u1jq9422aXijwaZWtlBG-11">
          <mxGeometry x="20" y="80" width="180" height="90" as="geometry" />
        </mxCell>
        <mxCell id="u1jq9422aXijwaZWtlBG-14" value="Module 2" style="text;html=1;align=center;verticalAlign=middle;whiteSpace=wrap;rounded=0;fontSize=24;" vertex="1" parent="u1jq9422aXijwaZWtlBG-11">
          <mxGeometry x="52.5" width="115" height="30" as="geometry" />
        </mxCell>
        <mxCell id="u1jq9422aXijwaZWtlBG-15" value="&lt;span style=&quot;font-size: 19px;&quot;&gt;API&lt;/span&gt;&lt;div&gt;&lt;span style=&quot;font-size: 19px;&quot;&gt;&lt;br&gt;&lt;/span&gt;&lt;/div&gt;&lt;div&gt;&lt;font style=&quot;font-size: 13px;&quot;&gt;(Controllers, DTOs, Mapper)&lt;/font&gt;&lt;/div&gt;" style="rounded=1;whiteSpace=wrap;html=1;fillColor=#dae8fc;strokeColor=#6c8ebf;verticalAlign=top;labelPosition=center;verticalLabelPosition=middle;align=center;" vertex="1" parent="u1jq9422aXijwaZWtlBG-11">
          <mxGeometry x="20" y="210" width="180" height="90" as="geometry" />
        </mxCell>
        <mxCell id="u1jq9422aXijwaZWtlBG-16" value="" style="endArrow=none;dashed=1;html=1;rounded=0;" edge="1" parent="u1jq9422aXijwaZWtlBG-11">
          <mxGeometry width="50" height="50" relative="1" as="geometry">
            <mxPoint x="8" y="190" as="sourcePoint" />
            <mxPoint x="213" y="190" as="targetPoint" />
          </mxGeometry>
        </mxCell>
        <mxCell id="u1jq9422aXijwaZWtlBG-17" value="&lt;span style=&quot;font-size: 19px;&quot;&gt;Application&lt;/span&gt;&lt;br&gt;&lt;div&gt;&lt;br&gt;&lt;/div&gt;&lt;div&gt;&lt;font style=&quot;font-size: 13px;&quot;&gt;(Services orchestrieren die Interaktion zwischen Anwendungslogic und der Außenwelt (z.B. API, externen Systemen, etc.)&lt;/font&gt;&lt;/div&gt;" style="rounded=1;whiteSpace=wrap;html=1;fillColor=#dae8fc;strokeColor=#6c8ebf;verticalAlign=top;labelPosition=center;verticalLabelPosition=middle;align=center;" vertex="1" parent="u1jq9422aXijwaZWtlBG-11">
          <mxGeometry x="20" y="320" width="180" height="130" as="geometry" />
        </mxCell>
        <mxCell id="u1jq9422aXijwaZWtlBG-18" value="&lt;span style=&quot;font-size: 19px;&quot;&gt;Infrastructure&lt;/span&gt;&lt;br&gt;&lt;div&gt;&lt;br&gt;&lt;/div&gt;&lt;div&gt;&lt;font style=&quot;font-size: 13px;&quot;&gt;(Implementiert die Repository Interfaces und kapselt die technischen Deails der Datenpersistenz)&lt;/font&gt;&lt;/div&gt;" style="rounded=1;whiteSpace=wrap;html=1;fillColor=#dae8fc;strokeColor=#6c8ebf;verticalAlign=top;labelPosition=center;verticalLabelPosition=middle;align=center;" vertex="1" parent="u1jq9422aXijwaZWtlBG-11">
          <mxGeometry x="20" y="470" width="180" height="130" as="geometry" />
        </mxCell>
        <mxCell id="u1jq9422aXijwaZWtlBG-19" value="" style="group" vertex="1" connectable="0" parent="1">
          <mxGeometry x="580" y="60" width="220" height="630" as="geometry" />
        </mxCell>
        <mxCell id="u1jq9422aXijwaZWtlBG-20" value="" style="rounded=0;whiteSpace=wrap;html=1;" vertex="1" parent="u1jq9422aXijwaZWtlBG-19">
          <mxGeometry y="60" width="220" height="570" as="geometry" />
        </mxCell>
        <mxCell id="u1jq9422aXijwaZWtlBG-48" style="edgeStyle=orthogonalEdgeStyle;rounded=0;orthogonalLoop=1;jettySize=auto;html=1;exitX=1;exitY=0.5;exitDx=0;exitDy=0;" edge="1" parent="u1jq9422aXijwaZWtlBG-19" source="u1jq9422aXijwaZWtlBG-21">
          <mxGeometry relative="1" as="geometry">
            <mxPoint x="290" y="125" as="targetPoint" />
          </mxGeometry>
        </mxCell>
        <mxCell id="u1jq9422aXijwaZWtlBG-21" value="&lt;font style=&quot;font-size: 19px;&quot;&gt;Domain&lt;/font&gt;&lt;div&gt;&lt;br&gt;&lt;/div&gt;&lt;div&gt;(Models/Entities, Interfaces und ggf. spezielle Domain-Logic)&lt;/div&gt;" style="rounded=1;whiteSpace=wrap;html=1;fillColor=#dae8fc;strokeColor=#6c8ebf;verticalAlign=top;labelPosition=center;verticalLabelPosition=middle;align=center;" vertex="1" parent="u1jq9422aXijwaZWtlBG-19">
          <mxGeometry x="20" y="80" width="180" height="90" as="geometry" />
        </mxCell>
        <mxCell id="u1jq9422aXijwaZWtlBG-22" value="Module 3" style="text;html=1;align=center;verticalAlign=middle;whiteSpace=wrap;rounded=0;fontSize=24;" vertex="1" parent="u1jq9422aXijwaZWtlBG-19">
          <mxGeometry x="52.5" width="115" height="30" as="geometry" />
        </mxCell>
        <mxCell id="u1jq9422aXijwaZWtlBG-23" value="&lt;span style=&quot;font-size: 19px;&quot;&gt;API&lt;/span&gt;&lt;div&gt;&lt;span style=&quot;font-size: 19px;&quot;&gt;&lt;br&gt;&lt;/span&gt;&lt;/div&gt;&lt;div&gt;&lt;font style=&quot;font-size: 13px;&quot;&gt;(Controllers, DTOs, Mapper)&lt;/font&gt;&lt;/div&gt;" style="rounded=1;whiteSpace=wrap;html=1;fillColor=#dae8fc;strokeColor=#6c8ebf;verticalAlign=top;labelPosition=center;verticalLabelPosition=middle;align=center;" vertex="1" parent="u1jq9422aXijwaZWtlBG-19">
          <mxGeometry x="20" y="210" width="180" height="90" as="geometry" />
        </mxCell>
        <mxCell id="u1jq9422aXijwaZWtlBG-24" value="" style="endArrow=none;dashed=1;html=1;rounded=0;" edge="1" parent="u1jq9422aXijwaZWtlBG-19">
          <mxGeometry width="50" height="50" relative="1" as="geometry">
            <mxPoint x="8" y="190" as="sourcePoint" />
            <mxPoint x="213" y="190" as="targetPoint" />
          </mxGeometry>
        </mxCell>
        <mxCell id="u1jq9422aXijwaZWtlBG-25" value="&lt;span style=&quot;font-size: 19px;&quot;&gt;Application&lt;/span&gt;&lt;br&gt;&lt;div&gt;&lt;br&gt;&lt;/div&gt;&lt;div&gt;&lt;font style=&quot;font-size: 13px;&quot;&gt;(Services orchestrieren die Interaktion zwischen Anwendungslogic und der Außenwelt (z.B. API, externen Systemen, etc.)&lt;/font&gt;&lt;/div&gt;" style="rounded=1;whiteSpace=wrap;html=1;fillColor=#dae8fc;strokeColor=#6c8ebf;verticalAlign=top;labelPosition=center;verticalLabelPosition=middle;align=center;" vertex="1" parent="u1jq9422aXijwaZWtlBG-19">
          <mxGeometry x="20" y="320" width="180" height="130" as="geometry" />
        </mxCell>
        <mxCell id="u1jq9422aXijwaZWtlBG-26" value="&lt;span style=&quot;font-size: 19px;&quot;&gt;Infrastructure&lt;/span&gt;&lt;br&gt;&lt;div&gt;&lt;br&gt;&lt;/div&gt;&lt;div&gt;&lt;font style=&quot;font-size: 13px;&quot;&gt;(Implementiert die Repository Interfaces und kapselt die technischen Deails der Datenpersistenz)&lt;/font&gt;&lt;/div&gt;" style="rounded=1;whiteSpace=wrap;html=1;fillColor=#dae8fc;strokeColor=#6c8ebf;verticalAlign=top;labelPosition=center;verticalLabelPosition=middle;align=center;" vertex="1" parent="u1jq9422aXijwaZWtlBG-19">
          <mxGeometry x="20" y="470" width="180" height="130" as="geometry" />
        </mxCell>
        <mxCell id="u1jq9422aXijwaZWtlBG-27" value="" style="group;shadow=0;textShadow=0;fillColor=none;fillStyle=dots;" vertex="1" connectable="0" parent="1">
          <mxGeometry x="850" y="60" width="220" height="630" as="geometry" />
        </mxCell>
        <mxCell id="u1jq9422aXijwaZWtlBG-28" value="" style="rounded=0;whiteSpace=wrap;html=1;fillColor=#f5f5f5;fontColor=#333333;strokeColor=#666666;" vertex="1" parent="u1jq9422aXijwaZWtlBG-27">
          <mxGeometry y="60" width="220" height="570" as="geometry" />
        </mxCell>
        <mxCell id="u1jq9422aXijwaZWtlBG-29" value="&lt;font style=&quot;font-size: 19px;&quot;&gt;Domain&lt;/font&gt;&lt;div&gt;&lt;br&gt;&lt;/div&gt;&lt;div&gt;(Base Models/Entities)&lt;/div&gt;" style="rounded=1;whiteSpace=wrap;html=1;fillColor=#C2CFE0;strokeColor=#6c8ebf;verticalAlign=top;labelPosition=center;verticalLabelPosition=middle;align=center;" vertex="1" parent="u1jq9422aXijwaZWtlBG-27">
          <mxGeometry x="20" y="80" width="180" height="90" as="geometry" />
        </mxCell>
        <mxCell id="u1jq9422aXijwaZWtlBG-30" value="Shared" style="text;html=1;align=center;verticalAlign=middle;whiteSpace=wrap;rounded=0;fontSize=24;" vertex="1" parent="u1jq9422aXijwaZWtlBG-27">
          <mxGeometry x="52.5" width="115" height="30" as="geometry" />
        </mxCell>
        <mxCell id="u1jq9422aXijwaZWtlBG-31" value="&lt;span style=&quot;font-size: 19px;&quot;&gt;API&lt;/span&gt;&lt;div&gt;&lt;span style=&quot;font-size: 19px;&quot;&gt;&lt;br&gt;&lt;/span&gt;&lt;/div&gt;&lt;div&gt;&lt;font style=&quot;font-size: 13px;&quot;&gt;(Base DTOs, Validatoren, etc.)&lt;/font&gt;&lt;/div&gt;" style="rounded=1;whiteSpace=wrap;html=1;fillColor=#C2CFE0;strokeColor=#6c8ebf;verticalAlign=top;labelPosition=center;verticalLabelPosition=middle;align=center;fillStyle=dashed;fontColor=#9C9C9C;" vertex="1" parent="u1jq9422aXijwaZWtlBG-27">
          <mxGeometry x="20" y="210" width="180" height="90" as="geometry" />
        </mxCell>
        <mxCell id="u1jq9422aXijwaZWtlBG-32" value="" style="endArrow=none;dashed=1;html=1;rounded=0;" edge="1" parent="u1jq9422aXijwaZWtlBG-27">
          <mxGeometry width="50" height="50" relative="1" as="geometry">
            <mxPoint x="8" y="190" as="sourcePoint" />
            <mxPoint x="213" y="190" as="targetPoint" />
          </mxGeometry>
        </mxCell>
        <mxCell id="u1jq9422aXijwaZWtlBG-33" value="&lt;span style=&quot;font-size: 19px;&quot;&gt;Application&lt;/span&gt;&lt;br&gt;&lt;div&gt;&lt;br&gt;&lt;/div&gt;&lt;div&gt;&lt;font style=&quot;font-size: 13px;&quot;&gt;(Domainübergreifende Services, z.B. Logger, MailSend.)&lt;/font&gt;&lt;/div&gt;" style="rounded=1;whiteSpace=wrap;html=1;fillColor=#C2CFE0;strokeColor=#6c8ebf;verticalAlign=top;labelPosition=center;verticalLabelPosition=middle;align=center;" vertex="1" parent="u1jq9422aXijwaZWtlBG-27">
          <mxGeometry x="20" y="320" width="180" height="130" as="geometry" />
        </mxCell>
        <mxCell id="u1jq9422aXijwaZWtlBG-34" value="&lt;span style=&quot;font-size: 19px;&quot;&gt;Infrastructure&lt;/span&gt;&lt;br&gt;&lt;div&gt;&lt;br&gt;&lt;/div&gt;&lt;div&gt;&lt;font style=&quot;font-size: 13px;&quot;&gt;(Domainübergreifend z.B. Extension, Prepared Filter etc. für die DB bzw. ORM)&lt;/font&gt;&lt;/div&gt;" style="rounded=1;whiteSpace=wrap;html=1;fillColor=#C2CFE0;strokeColor=#6c8ebf;verticalAlign=top;labelPosition=center;verticalLabelPosition=middle;align=center;" vertex="1" parent="u1jq9422aXijwaZWtlBG-27">
          <mxGeometry x="20" y="470" width="180" height="130" as="geometry" />
        </mxCell>
        <mxCell id="u1jq9422aXijwaZWtlBG-37" value="API" style="text;html=1;align=center;verticalAlign=middle;whiteSpace=wrap;rounded=0;fontSize=24;fontColor=default;" vertex="1" parent="1">
          <mxGeometry x="493" y="800" width="115" height="30" as="geometry" />
        </mxCell>
        <mxCell id="u1jq9422aXijwaZWtlBG-40" value="" style="endArrow=classic;html=1;rounded=0;entryX=0.5;entryY=1;entryDx=0;entryDy=0;exitX=0.106;exitY=-0.022;exitDx=0;exitDy=0;exitPerimeter=0;" edge="1" parent="1" source="u1jq9422aXijwaZWtlBG-39" target="u1jq9422aXijwaZWtlBG-3">
          <mxGeometry width="50" height="50" relative="1" as="geometry">
            <mxPoint x="520" y="590" as="sourcePoint" />
            <mxPoint x="570" y="540" as="targetPoint" />
          </mxGeometry>
        </mxCell>
        <mxCell id="u1jq9422aXijwaZWtlBG-41" value="" style="endArrow=classic;html=1;rounded=0;entryX=0.5;entryY=1;entryDx=0;entryDy=0;exitX=0.106;exitY=-0.022;exitDx=0;exitDy=0;exitPerimeter=0;" edge="1" parent="1">
          <mxGeometry width="50" height="50" relative="1" as="geometry">
            <mxPoint x="419.5" y="770" as="sourcePoint" />
            <mxPoint x="420.5" y="692" as="targetPoint" />
          </mxGeometry>
        </mxCell>
        <mxCell id="u1jq9422aXijwaZWtlBG-42" value="" style="endArrow=classic;html=1;rounded=0;entryX=0.5;entryY=1;entryDx=0;entryDy=0;exitX=0.106;exitY=-0.022;exitDx=0;exitDy=0;exitPerimeter=0;" edge="1" parent="1">
          <mxGeometry width="50" height="50" relative="1" as="geometry">
            <mxPoint x="689.5" y="770" as="sourcePoint" />
            <mxPoint x="690.5" y="692" as="targetPoint" />
          </mxGeometry>
        </mxCell>
        <mxCell id="u1jq9422aXijwaZWtlBG-44" style="edgeStyle=orthogonalEdgeStyle;rounded=0;orthogonalLoop=1;jettySize=auto;html=1;exitX=1;exitY=0.5;exitDx=0;exitDy=0;entryX=-0.033;entryY=0.544;entryDx=0;entryDy=0;entryPerimeter=0;" edge="1" parent="1" source="u1jq9422aXijwaZWtlBG-1" target="u1jq9422aXijwaZWtlBG-29">
          <mxGeometry relative="1" as="geometry">
            <Array as="points">
              <mxPoint x="250" y="185" />
              <mxPoint x="250" y="20" />
              <mxPoint x="860" y="20" />
              <mxPoint x="860" y="189" />
            </Array>
          </mxGeometry>
        </mxCell>
        <mxCell id="u1jq9422aXijwaZWtlBG-46" style="edgeStyle=orthogonalEdgeStyle;rounded=0;orthogonalLoop=1;jettySize=auto;html=1;exitX=1;exitY=0.5;exitDx=0;exitDy=0;entryX=0;entryY=0.5;entryDx=0;entryDy=0;" edge="1" parent="1" source="u1jq9422aXijwaZWtlBG-13" target="u1jq9422aXijwaZWtlBG-29">
          <mxGeometry relative="1" as="geometry">
            <Array as="points">
              <mxPoint x="520" y="185" />
              <mxPoint x="520" y="40" />
              <mxPoint x="850" y="40" />
              <mxPoint x="850" y="185" />
            </Array>
          </mxGeometry>
        </mxCell>
        <mxCell id="u1jq9422aXijwaZWtlBG-53" value="" style="endArrow=classic;html=1;rounded=0;exitX=0;exitY=0.5;exitDx=0;exitDy=0;entryX=1;entryY=0.5;entryDx=0;entryDy=0;" edge="1" parent="1" source="u1jq9422aXijwaZWtlBG-8" target="u1jq9422aXijwaZWtlBG-33">
          <mxGeometry width="50" height="50" relative="1" as="geometry">
            <mxPoint x="470" y="550" as="sourcePoint" />
            <mxPoint x="520" y="500" as="targetPoint" />
            <Array as="points">
              <mxPoint x="20" y="445" />
              <mxPoint x="20" y="940" />
              <mxPoint x="560" y="940" />
              <mxPoint x="1090" y="940" />
              <mxPoint x="1090" y="445" />
            </Array>
          </mxGeometry>
        </mxCell>
        <mxCell id="u1jq9422aXijwaZWtlBG-56" value="" style="endArrow=classic;html=1;rounded=0;exitX=0;exitY=0.5;exitDx=0;exitDy=0;entryX=1;entryY=0.5;entryDx=0;entryDy=0;" edge="1" parent="1" source="u1jq9422aXijwaZWtlBG-9" target="u1jq9422aXijwaZWtlBG-34">
          <mxGeometry width="50" height="50" relative="1" as="geometry">
            <mxPoint x="470" y="550" as="sourcePoint" />
            <mxPoint x="520" y="500" as="targetPoint" />
            <Array as="points">
              <mxPoint x="30" y="595" />
              <mxPoint x="30" y="900" />
              <mxPoint x="560" y="900" />
              <mxPoint x="1080" y="900" />
              <mxPoint x="1080" y="595" />
            </Array>
          </mxGeometry>
        </mxCell>
      </root>
    </mxGraphModel>
  </diagram>
</mxfile>
